<svg xmlns="http://www.w3.org/2000/svg" viewBox="0 0 76.82 67.39">
  <path fill="#2563eb" d="M72.17 29.4a4.14 4.14 0 0 0-1 .13L62.56 14.71 61 12.05 58.23 7.19A4.29 4.29 0 1 0 51 3.12H25.34a4.29 4.29 0 1 0-7.17 4.19L5.34 29.53a3.76 3.76 0 0 0-1-.13A4.29 4.29 0 0 0 3.93 38h.41a3.77 3.77 0 0 0 1-.14L14.12 53l1.36 2.35 2.73 4.73a4.29 4.29 0 1 0 7.17 4.19H51a4.29 4.29 0 1 0 7.28-4.07L71.12 37.83a4.15 4.15 0 0 0 1 .14 4.29 4.29 0 0 0 .41-8.57Zm-3 7.26L56.25 59a4.05 4.05 0 0 0-1.15-.17A4.32 4.32 0 0 0 51 61.9H25.34a4.31 4.31 0 0 0-4.12-3.12 4.22 4.22 0 0 0-1 .13L17.84 54.8 16 51.56l-8.6-14.9a4.27 4.27 0 0 0 0-6L20.22 8.42a4.21 4.21 0 0 0 1 .12 4.28 4.28 0 0 0 4.12-3.12H51a4.31 4.31 0 0 0 4.13 3.12 4 4 0 0 0 1.15-.16l2.39 4.14 2.13 3.68 8.37 14.5a4.26 4.26 0 0 0 0 6Z"/>
  <path fill="#2563eb" d="M50 25.27c-1.3 1.1-2.6 2.2-3.91 3.28-.26.21-.5.44-.76.64h0l-2 1.71-1.47 1.23-.21.16c-.22.23-.48.41-.71.62l-.11.09c-.11.08-.11.15 0 .26a8.28 8.28 0 0 1 .52.79c.58.84 1.15 1.68 1.72 2.53s1.38 2 2.05 3.05c.14.2.25.41.39.61 1.29 1.83 2.51 3.7 3.77 5.54.4.58.79 1.17 1.18 1.76l.08.12a.31.31 0 0 1-.22.09L44.12 49.1l-5 1.09-.71.14c-.34.11-.7.16-1 .24l-3.19.69-4.81 1-6.2 1.34-.41.92 1 1.8A2.52 2.52 0 0 0 26 57.57H50.73a2.52 2.52 0 0 0 2.17-1.25L65.12 34.89a2.53 2.53 0 0 0 0-2.5L57.75 19.64a.62.62 0 0 0-.84-.24l-.1.07-4.32 3.64Z"/>
  <path fill="#2563eb" d="M50.61 9.73H25.85A2.52 2.52 0 0 0 23.68 11L11.3 32.43a2.48 2.48 0 0 0 0 2.5l7.76 13.45.92.19.95-.71c1.43-1.07 2.85-2.15 4.29-3.21l2.38-1.78 3.67-2.75 2-1.51 4.24-3.17 2.91-2.17a.7.7 0 0 0 .2-.18l-9.78-14.5c.07-.09.15-.08.21-.1l8.51-1.83 4.85-1h.15c.6-.16 1.2-.27 1.8-.4l6.17-1.33.84-.18a.63.63 0 0 0 .41-.92l-1-1.79A2.5 2.5 0 0 0 50.61 9.73Z"/>
</svg>
