<svg xmlns="http://www.w3.org/2000/svg" id="Capa_1" data-name="Capa 1" viewBox="0 0 223.41 36.12">
  <defs>
    <style>.cls-1{fill:#2563eb}.cls-2{fill:#1d1d1b}</style>
  </defs>
  <title>Runebond horizontal logo</title>
  <path class="cls-1" d="M38.7 15.76a2.1 2.1 0 0 0-.56.08L33.6 7.89l-.83-1.43-1.5-2.6a2.3 2.3 0 1 0-3.9-2.19H13.6A2.3 2.3 0 0 0 9.18 3a2.33 2.33 0 0 0 .57 1L2.87 15.84a2.1 2.1 0 0 0-.56-.08 2.3 2.3 0 0 0 0 4.6 2.1 2.1 0 0 0 .56-.07l4.69 8.12.72 1.25 1.47 2.54a2.3 2.3 0 1 0 3.85 2.25h13.73a2.3 2.3 0 0 0 4.51-.63 2.27 2.27 0 0 0-.61-1.55l6.92-12a2.1 2.1 0 0 0 .56.07 2.3 2.3 0 0 0 0-4.6Zm-1.65 3.9-6.9 12a2.1 2.1 0 0 0-.61-.09 2.3 2.3 0 0 0-2.22 1.68H13.6a2.31 2.31 0 0 0-2.21-1.68 2.5 2.5 0 0 0-.54.07l-1.28-2.2-1-1.74L4 19.65a2.29 2.29 0 0 0 0-3.2L10.85 4.52a2 2 0 0 0 .54.07 2.29 2.29 0 0 0 2.21-1.67h13.73a2.3 2.3 0 0 0 2.22 1.67 2.1 2.1 0 0 0 .61-.09l1.29 2.23 1.13 2 4.48 7.75a2.29 2.29 0 0 0 0 3.2Z"/>
  <path class="cls-1" d="m26.82 13.55-2.1 1.76-.41.34-1.08.92-.79.66-.11.09c-.12.12-.26.22-.38.33l-.06.05c-.06 0-.06.08 0 .14a2.57 2.57 0 0 1 .27.42l.93 1.36c.37.54.74 1.08 1.1 1.63.07.11.13.22.21.33.69 1 1.34 2 2 3l.63.94v.07a.17.17 0 0 0-.12.05l-3.33.72-2.7.58-.38.08a5.07 5.07 0 0 1-.56.13l-1.71.37-2.58.56-3.32.71-.22.5.56 1a1.33 1.33 0 0 0 1.16.67h13.28a1.33 1.33 0 0 0 1.16-.67l6.64-11.5a1.34 1.34 0 0 0 0-1.34l-4-6.84a.34.34 0 0 0-.45-.13l-.05 0-2.32 2Z"/>
  <path class="cls-1" d="M27.14 5.27H13.86a1.33 1.33 0 0 0-1.16.67L6.06 17.44a1.34 1.34 0 0 0 0 1.34L10.22 26l.49.1.51-.38L13.52 24l1.28-1 2-1.47 1.09-.82 2.27-1.69 1.56-1.17a.31.31 0 0 0 .11-.09L16.6 10a.11.11 0 0 1 .12-.05l4.56-1 2.6-.56H24c.32-.08.64-.14 1-.21l3.3-.71.45-.1A.34.34 0 0 0 29 7a.42.42 0 0 0 0-.1l-.55-1a1.32 1.32 0 0 0-1.31-.63Z"/>
  <path class="cls-2" d="m66.6 20.84 3.32 5.21h-6.1l-2.91-4.65H56.3V26h-5.6V11.27h11.84c5 0 7.51 1.67 7.51 4.95v.19a4.36 4.36 0 0 1-3.45 4.43Zm-10.33-3.4h6.16c1.79 0 1.79-.75 1.79-1v-.06c0-.29 0-1.06-1.79-1.06H56.3Z"/>
  <path class="cls-2" d="M85.78 18.13v-6.8h5.58v7a7.73 7.73 0 0 1-.22 1.85 7.72 7.72 0 0 1-2.6 3.92 8.38 8.38 0 0 1-2.84 1.36 14.35 14.35 0 0 1-4.07.53h-.73a16.9 16.9 0 0 1-3.17-.27 10.5 10.5 0 0 1-2.45-.72 7.61 7.61 0 0 1-1.79-1.13 6.86 6.86 0 0 1-1.23-1.35 6.79 6.79 0 0 1-.75-1.47 7.12 7.12 0 0 1-.39-1.42 9.07 9.07 0 0 1-.12-1.25v-7h5.6v6.8a3.41 3.41 0 0 0 .84 2.36 3 3 0 0 0 1.38.85 7.37 7.37 0 0 0 2.38.33 7.07 7.07 0 0 0 2.33-.33 3.11 3.11 0 0 0 1.37-.85 3.52 3.52 0 0 0 .66-1.12 3.74 3.74 0 0 0 .19-1.24Z"/>
  <path class="cls-2" d="M107.93 11.27h5.54V26h-5.29l-9.76-8.71V26h-5.53V11.27h5.89l9.15 8.25Z"/>
  <path class="cls-2" d="M120.87 22h11.34v4h-16.89V11.27h16.89v4h-11.34v1.23h11.34v4h-11.34Z"/>
  <path class="cls-2" d="M154 19.63a3.72 3.72 0 0 1 .4 1.73v.26c0 2.94-2.27 4.42-6.74 4.42H134V11.27h13.48a8.12 8.12 0 0 1 4.55 1 3.11 3.11 0 0 1 1.45 2.63v.26a3.12 3.12 0 0 1-.3 1.34 2.83 2.83 0 0 1-.82 1l-.55.36a7.5 7.5 0 0 1 1.07.6 3.31 3.31 0 0 1 1.12 1.17Zm-14.33-3.14h7c1.24 0 1.24-.5 1.24-.71s0-.73-1.24-.73h-7Zm8.93 4.67c0-.27 0-.88-1.47-.88h-7.46v1.9h7.46c.74 0 1-.15 1.18-.29a.87.87 0 0 0 .31-.62Z"/>
  <path class="cls-2" d="M177.92 17.16a9.67 9.67 0 0 1 .08 1.2v.54a9.36 9.36 0 0 1-.08 1.18 6.18 6.18 0 0 1-.4 1.33 6.06 6.06 0 0 1-.78 1.38 6.56 6.56 0 0 1-1.37 1.26 8.88 8.88 0 0 1-2 1.05 14.3 14.3 0 0 1-2.8.68 22.5 22.5 0 0 1-3.67.26h-.65a24 24 0 0 1-3.69-.25 15 15 0 0 1-2.81-.69 8.49 8.49 0 0 1-2-1.05 6.51 6.51 0 0 1-1.37-1.25 5.65 5.65 0 0 1-.8-1.39 6.75 6.75 0 0 1-.38-1.33 9.36 9.36 0 0 1-.08-1.18v-.54a9.67 9.67 0 0 1 .08-1.2 6.56 6.56 0 0 1 .38-1.31 5.59 5.59 0 0 1 .8-1.38 6.42 6.42 0 0 1 1.36-1.24 8.32 8.32 0 0 1 2-1 14.2 14.2 0 0 1 2.81-.67 26.81 26.81 0 0 1 3.69-.25h.65a26.38 26.38 0 0 1 3.66.25 14.27 14.27 0 0 1 2.8.67 8.32 8.32 0 0 1 2 1 6.69 6.69 0 0 1 1.36 1.24 6.24 6.24 0 0 1 1.2 2.69Zm-5.74 1.58v-.26a3 3 0 0 0-.12-.84 2.56 2.56 0 0 0-.48-.81 3.05 3.05 0 0 0-.94-.73 6.5 6.5 0 0 0-1.67-.53 11.22 11.22 0 0 0-2-.21h-.62c-3.63.07-5.4 1.09-5.4 3.13v.22a2.69 2.69 0 0 0 .23 1.08 3.43 3.43 0 0 0 .77 1 4.32 4.32 0 0 0 1.73.82 11.54 11.54 0 0 0 2.74.33h.47a11.67 11.67 0 0 0 2.57-.32 4.48 4.48 0 0 0 1.74-.81 3.18 3.18 0 0 0 .79-1 2.81 2.81 0 0 0 .22-1.07Z"/>
  <path class="cls-2" d="M194.32 11.27h5.54V26h-5.26l-9.75-8.71V26h-5.54V11.27h5.89l9.15 8.25Z"/>
  <path class="cls-2" d="M223.22 16.6a7.37 7.37 0 0 1 .2 1.69v.56a7.47 7.47 0 0 1-.26 2 5.92 5.92 0 0 1-1 1.95 6.77 6.77 0 0 1-2 1.69 11.69 11.69 0 0 1-3.24 1.14 21.72 21.72 0 0 1-4.62.43h-10.59V11.27h10.53a25.74 25.74 0 0 1 3.92.27 12 12 0 0 1 3 .79 9.81 9.81 0 0 1 2.05 1.15 4.72 4.72 0 0 1 1.37 1.52 7.21 7.21 0 0 1 .64 1.6Zm-5.63 2c0-.78 0-3.16-5.72-3.16h-4.55v6.45h4.55c5.72 0 5.72-2.39 5.72-3.18Z"/>
</svg>
