<svg xmlns="http://www.w3.org/2000/svg" viewBox="0 0 76.82 67.39" role="img" aria-label="Runebond">
  <path fill="#2563eb" d="M72.33 29.41a4.14 4.14 0 0 0-1 .13L62.72 14.72l-1.56-2.66-2.77-4.86a4.29 4.29 0 1 0-7.23-4.07H25.5a4.29 4.29 0 1 0-7.17 4.19L5.5 29.54a3.76 3.76 0 0 0-1-.13A4.29 4.29 0 0 0 4.09 38h.41a3.77 3.77 0 0 0 1-.14L14.28 53l1.36 2.35 2.73 4.73a4.29 4.29 0 1 0 7.17 4.19h25.62a4.29 4.29 0 1 0 7.28-4.07l12.84-22.37a4.15 4.15 0 0 0 1 .14 4.29 4.29 0 0 0 .41-8.57Zm-3 7.26L56.41 59a4.05 4.05 0 0 0-1.15-.17 4.32 4.32 0 0 0-4.1 3.12H25.5a4.31 4.31 0 0 0-4.12-3.12 4.22 4.22 0 0 0-1 .13L18 54.81l-1.84-3.24-8.6-14.9a4.27 4.27 0 0 0 0-6L20.38 8.43a4.21 4.21 0 0 0 1 .12 4.28 4.28 0 0 0 4.12-3.12h25.66a4.31 4.31 0 0 0 4.13 3.12 4 4 0 0 0 1.15-.16l2.39 4.14L61 16.21l8.37 14.5a4.26 4.26 0 0 0 0 6Z"/>
  <path fill="#2563eb" d="M50.16 25.28c-1.3 1.1-2.6 2.2-3.91 3.28-.26.21-.5.44-.76.64l-2 1.71-1.47 1.23-.21.16c-.22.23-.48.41-.71.62l-.11.09c-.11.08-.11.15 0 .26a8.28 8.28 0 0 1 .52.79c.58.84 1.15 1.68 1.72 2.53s1.38 2 2.05 3.05c.14.2.25.41.39.61 1.29 1.83 2.51 3.7 3.77 5.54.4.58.79 1.17 1.18 1.76l.08.12a.31.31 0 0 1-.22.09l-6.19 1.35-5 1.09-.71.14c-.34.11-.7.16-1 .24l-3.19.69-4.81 1-6.2 1.34-.41.92 1 1.8a2.52 2.52 0 0 0 2.17 1.25h24.73a2.52 2.52 0 0 0 2.17-1.25l12.22-21.43a2.53 2.53 0 0 0 0-2.5l-7.37-12.75a.62.62 0 0 0-.84-.24l-.1.07-4.32 3.64Z"/>
  <path fill="#2563eb" d="M50.77 9.74H26.01a2.52 2.52 0 0 0-2.17 1.27L11.46 32.44a2.48 2.48 0 0 0 0 2.5l7.76 13.45.92.19.95-.71c1.43-1.07 2.85-2.15 4.29-3.21l2.38-1.78 3.67-2.75 2-1.51 4.24-3.17 2.91-2.17a.7.7 0 0 0 .2-.18L31 18.6c.07-.09.15-.08.21-.1l8.51-1.83 4.85-1h.15c.6-.16 1.2-.27 1.8-.4l6.17-1.33.84-.18a.63.63 0 0 0 .41-.92l-1-1.79a2.5 2.5 0 0 0-2.17-1.31Z"/>
</svg>
